<svg width="24" height="24" viewBox="0 0 24 24" fill="none" xmlns="http://www.w3.org/2000/svg">
<path d="M2.99222 13H3.99222V20C3.99222 21.103 4.88922 22 5.99222 22H17.9922C19.0952 22 19.9922 21.103 19.9922 20V13H20.9922C21.19 13 21.3833 12.9413 21.5477 12.8314C21.7121 12.7215 21.8402 12.5654 21.9159 12.3827C21.9916 12.2 22.0114 11.999 21.9728 11.805C21.9342 11.611 21.839 11.4329 21.6992 11.293L12.6992 2.29303C12.5117 2.10556 12.2574 2.00024 11.9922 2.00024C11.7271 2.00024 11.4727 2.10556 11.2852 2.29303L2.28522 11.293C2.14541 11.4329 2.0502 11.611 2.01164 11.805C1.97307 11.999 1.99287 12.2 2.06854 12.3827C2.14421 12.5654 2.27235 12.7215 2.43676 12.8314C2.60117 12.9413 2.79447 13 2.99222 13ZM9.99222 20V15H13.9922V20H9.99222ZM11.9922 4.41403L17.9922 10.414V15L17.9932 20H15.9922V15C15.9922 13.897 15.0952 13 13.9922 13H9.99222C8.88922 13 7.99222 13.897 7.99222 15V20H5.99222V10.414L11.9922 4.41403Z" fill="#3DCAAA"/>
</svg>
