<svg width="24" height="24" viewBox="0 0 24 24" fill="none" xmlns="http://www.w3.org/2000/svg">
<path d="M20.8322 7.4L22.2422 6L17.9922 1.75L16.5922 3.16L17.9922 4.58L16.5922 6L14.4622 3.87L13.0522 2.45L11.6422 3.87L12.3422 4.58L2.99219 13.92C2.67531 14.236 2.47354 14.649 2.41916 15.0932C2.36477 15.5374 2.46091 15.9869 2.69219 16.37L3.99219 18.56L1.74219 20.84L3.15219 22.25L5.43219 20L7.62219 21.31C7.92505 21.4898 8.27002 21.5863 8.62219 21.59C8.89113 21.5942 9.15817 21.5441 9.40731 21.4428C9.65645 21.3414 9.88259 21.1908 10.0722 21L19.4122 11.66L20.1222 12.36L21.5422 10.95L20.1222 9.53L17.9922 7.4L19.4122 6L20.8322 7.4ZM17.9922 10.23L8.65219 19.58L5.99219 18L4.41219 15.34L5.27219 14.47L8.10219 17.3L9.52219 15.89L6.69219 13.06L8.10219 11.65L10.9322 14.47L12.3422 13.06L9.51219 10.23L10.9322 8.82L13.7622 11.65L15.1722 10.23L12.3422 7.4L13.7622 6L17.9922 10.23Z" fill="#737373"/>
</svg>
